<svg viewBox="0 0 620 200" xmlns="http://www.w3.org/2000/svg">
  <!-- Icon: gold rays/sun retained for brand color pop, road in white for dark bg -->
  <g transform="translate(10,0)">
    <g>
        <line x1="58.7" y1="85.0" x2="46.4" y2="80.5" stroke="#F2A93B" stroke-width="6" stroke-linecap="round"/>
      <line x1="74.8" y1="64.0" x2="67.3" y2="53.3" stroke="#F2A93B" stroke-width="6" stroke-linecap="round"/>
      <line x1="100.0" y1="56.0" x2="100.0" y2="43.0" stroke="#F2A93B" stroke-width="6" stroke-linecap="round"/>
      <line x1="125.2" y1="64.0" x2="132.7" y2="53.3" stroke="#F2A93B" stroke-width="6" stroke-linecap="round"/>
      <line x1="141.3" y1="85.0" x2="153.6" y2="80.5" stroke="#F2A93B" stroke-width="6" stroke-linecap="round"/>
      </g>
    <path d="M 56 122 A 44 44 0 0 1 144 122" fill="none" stroke="#F2A93B" stroke-width="9" stroke-linecap="round"/>
    <path d="M 18 122 L 144 122 C 162 122 168 108 178 88 S 186 66 190 58" fill="none" stroke="#FFFFFF" stroke-width="9" stroke-linecap="round"/>
    <path d="M 18 122 L 144 122 C 162 122 168 108 178 88 S 186 66 190 58" fill="none" stroke="#F2A93B" stroke-width="2.4" stroke-linecap="round" stroke-dasharray="10 9"/>
  </g>

  <!-- Wordmark: white -->
  <g transform="translate(232,0)">
    <text x="0" y="108" font-family="Helvetica, Arial, sans-serif" font-size="62" font-weight="700" fill="#FFFFFF">Tripp</text>
    <text x="0" y="148" font-family="Helvetica, Arial, sans-serif" font-size="27" font-weight="500" letter-spacing="1" fill="#F2A93B">Energy and Mobility</text>
  </g>
</svg>
